/* XPM */
static char * cat_xpm[] = {
"21 13 2 1",
" 	c #FF0000",
".	c #FFFF00",
"                     ",
"                     ",
".....................",
".....................",
"                     ",
"                     ",
".....................",
".....................",
"                     ",
"                     ",
".....................",
".....................",
"                     "};
