/* XPM */
static char * de_xpm[] = {
"21 13 3 1",
" 	c #000000",
".	c #FF0000",
"+	c #FFFF00",
"                     ",
"                     ",
"                     ",
"                     ",
".....................",
".....................",
".....................",
".....................",
"+++++++++++++++++++++",
"+++++++++++++++++++++",
"+++++++++++++++++++++",
"+++++++++++++++++++++",
"+++++++++++++++++++++"};
