/* XPM */
static char * es_xpm[] = {
"21 13 2 1",
" 	c #FF0000",
".	c #FFFF00",
"                     ",
"                     ",
"                     ",
".....................",
".....................",
".....................",
".....................",
".....................",
".....................",
".....................",
"                     ",
"                     ",
"                     "};
