/* XPM */
static char * fr_xpm[] = {
"21 13 3 1",
" 	c #000080",
".	c #FF0000",
"+	c #FFFFFF",
"       +++++++.......",
"       +++++++.......",
"       +++++++.......",
"       +++++++.......",
"       +++++++.......",
"       +++++++.......",
"       +++++++.......",
"       +++++++.......",
"       +++++++.......",
"       +++++++.......",
"       +++++++.......",
"       +++++++.......",
"       +++++++......."};
