/* XPM */
static char * it_xpm[] = {
"21 13 3 1",
" 	c #008000",
".	c #FFFFFF",
"+	c #FF0000",
"       .......+++++++",
"       .......+++++++",
"       .......+++++++",
"       .......+++++++",
"       .......+++++++",
"       .......+++++++",
"       .......+++++++",
"       .......+++++++",
"       .......+++++++",
"       .......+++++++",
"       .......+++++++",
"       .......+++++++",
"       .......+++++++"};
