/* XPM */
static char * ro_xpm[] = {
"21 13 3 1",
" 	c #0000FF",
".	c #FFFF00",
"+	c #FF0000",
"       .......+++++++",
"       .......+++++++",
"       .......+++++++",
"       .......+++++++",
"       .......+++++++",
"       .......+++++++",
"       .......+++++++",
"       .......+++++++",
"       .......+++++++",
"       .......+++++++",
"       .......+++++++",
"       .......+++++++",
"       .......+++++++"};
