/* XPM */
static char * se_xpm[] = {
"21 13 2 1",
" 	c #0099B6",
".	c #FFFF00",
"      ...            ",
"      ...            ",
"      ...            ",
"      ...            ",
"      ...            ",
".....................",
".....................",
".....................",
"      ...            ",
"      ...            ",
"      ...            ",
"      ...            ",
"      ...            "};
