/* XPM */
static char * uk_xpm[] = {
"21 13 3 1",
" 	c #FFFFFF",
".	c #000080",
"+	c #FF0000",
"  ...... +++ .....++ ",
"++  .... +++ ...++  .",
"..++  .. +++ .++  ...",
"....++ . +++ +  .....",
"         +++         ",
"+++++++++++++++++++++",
"+++++++++++++++++++++",
"+++++++++++++++++++++",
"         +++         ",
".....  + +++ . ++....",
"...  ++. +++ ..  ++..",
".  ++... +++ ....  ++",
" ++..... +++ ......  "};
