/* XPM */
static char * edge_mode_xpm[] = {
"20 20 31 1",
" 	c None",
".	c #FFFFFF",
"+	c #E3E3E3",
"@	c #DFDFDF",
"#	c #F7F7F7",
"$	c #BFBFBF",
"%	c #101010",
"&	c #000000",
"*	c #707070",
"=	c #040404",
"-	c #8F8F8F",
";	c #808080",
">	c #805050",
",	c #FFF3F3",
"'	c #2C0000",
")	c #DF0000",
"!	c #FF6060",
"~	c #8F7070",
"{	c #800000",
"]	c #803030",
"^	c #DF7070",
"/	c #FF0000",
"(	c #FF5050",
"_	c #FFBFBF",
":	c #FFFBFB",
"<	c #FF8F8F",
"[	c #FF0808",
"}	c #FF5C5C",
"|	c #FFEFEF",
"1	c #FF8383",
"2	c #FF9B9B",
"....................",
"...+@@#.............",
"..$%&&*.............",
".+%&&&=-............",
".@&&&&&;............",
".@&&&&&>,...........",
".#*=&&')!,..........",
"...~{]^//(..........",
"..._/!:<[/}|........",
"..._/!..1//}........",
"..._/!...2//(,......",
"..._/!....1[/!,.....",
"..._/!.....<//(.....",
"..._/!.....:<[/}|...",
"..._/!.......1//}...",
"..._/!........2//(,.",
"..._/!.........1[/!,",
"..._/!..........<//(",
"..._/!..........:<[/",
"..._/!............1/"};
