/* XPM */
static char * logo_sc_xpm[] = {
"48 48 33 1",
" 	c None",
".	c #601E19",
"+	c #8B5D50",
"@	c #6B8CB1",
"#	c #A0C4DE",
"$	c #C08D71",
"%	c #C4C2C6",
"&	c #7EA0C8",
"*	c #B1416C",
"=	c #CAA284",
"-	c #AD9C92",
";	c #733A2A",
">	c #E1E3E7",
",	c #89B1D6",
"'	c #7B7889",
")	c #808CA0",
"!	c #E0D3CB",
"~	c #BEB3BC",
"{	c #9B4953",
"]	c #A4A0A8",
"^	c #854E40",
"/	c #B6D0E3",
"(	c #A56255",
"_	c #AA7867",
":	c #A4B2C4",
"<	c #9C9BA5",
"[	c #CBD2D9",
"}	c #A7897D",
"|	c #982856",
"1	c #D1B198",
"2	c #A56183",
"3	c #AEAFB7",
"4	c #99B5D1",
"%%%%[3<3~~%[[%%%[[![!!>>>>>/:&,&,,,&&&&&&@&@@@@@",
"[%~333~<))<3~~3%%[[[>!>>>>>:,4&,&,&,&&&&&&&@@@@@",
"~33]3]<''}<]33~%%!![!>>>>>>#:,4,,,&,,,&&&&@&&@@@",
"~]3]33)')<]:~~%[[[>>>!>>>>>/44,,,,,,,&,&,&&@&@@@",
"%%~~3<}'<<]~:%%%[![!>>>>>>>>#4#444,,,,,&,&,&&@&&",
"~~~~~]<<<]3:~~%[[[>>[>!>>>>>%###:3:],,,,&,&&&&&)",
"~~~%~]]]<<]~%%%%[[[>[>!>>>>[/%%:<<<:],,,,,,&&&@&",
"%~[%~]]]]]3:~~%!%[![>[>[[[[%%3}'+'}<4,,,,,,,&&&&",
":%%%~~~~]]33%~%%%![>!>![!%~-}'+^^^'}<4,,,,,&&&&&",
"~[%~~%~~:%%[%%[%[%[[![!%=--}_^^^^^+_]4#,,,,,,&&&",
"#%#::%#::#/>>/%%%[!!!%-_'((++^++^++_~~#,#,,,,&&&",
"&&&&&&,4,4/>>[%%!%~~='^;^;;;;;^^(_(+-%####,,,,,&",
"&&,&,,,44##>>>%1$_+;.;;;.;.;;;;^(___}~//###,,,,&",
"&&&&&,,44##>>1$'^;..^(_+^___(;;;^^_(}-#/####,,,,",
"&&&,&,,44%~~!1_(^;..+2((_$$$$$_((+__=-3//###,,,,",
",&&,,44~33-$1$_^...;{({(($$=====$$=11-=%//###,,,",
",&44::33}__}=(^;;.;(({{((($$$=====11!13%[//##,,,",
"&,4]3]}_'^+_(+;;;^((((*((*$$$====111!%%[//####,,",
"&:43]-}_++((^;;;^__((*{(((($$$=====11!![>///##,,",
"&,:3--}(^^++^;;;(__(((**(*(($$$$$$$=11!/>//###4,",
"&,]:]}_+;^^+;;;+}__(*{(*((((**({({((_=1[>///##,,",
"&,4:3]}'_(;+;;+__$(({{*(*({|.;;;;;.;;+}3/>//###,",
",&4:#33-_(__^+_$$$(({{{{{{....;;.;;;;;+}%[//##,,",
",,4#:%~-$}=1=$$$$$(({;....;;;;;;;;;;^^+}[>//###4",
",,,44#%!!=1!1=$$$(({;.....;;;^^^;;;++++'3[>//##,",
"&,44##%%!=1!!=$$$_({..;..;^(({^;^^(_$__}):#####4",
",,,44/#[!==!!1=$$((;..;..+^;....^_$$==11%%//###,",
"&,,,###/1-$>!1=$_(+;.;;^;;.....^_$=1==1!!>[//##4",
",,,,###/[=-!!1=$(++;;;;^;.....{$$=1111%![[///##,",
"&,,,,###/[1!>1=$((;;.;;....;{_$===11=1%[>>//##44",
",,,#####//[>>!=_^^;;.;;^+__$$=======11%!>///###,",
"&&,,,####/!!!!=(^;;;;^+($$=$========11%[>>//##44",
",,,,#####//[>!1_^;;^^+_}$$$==$$$$$=$11[>////##,,",
"&,,,,,###//!>!1$+^^++_}}$$$$$$$$$$==11#>>//###,,",
"&,,,,#####//!!1=__+____}$_$____$$$==33%>//###,,,",
"&,,,,#,####/[!!11$}__}$_$$$_$$$$$=$-3%/[//##4,,&",
",&,,,,####/#/[!!!!=}}_}_$}$$$$=$$==--~#//###,,,&",
"&,,,,,,,####//[[!!!1-}}}}$$}$$$$}$=}=]~[#%#44&,&",
"&,,,,,######//[[[>[%1=$}_$}$$$}_(22{22-%3~~)&&)&",
"&&&,,,,,,####////[[~1==_((((((({*||**2$13:%<'@@@",
"&&,&,,,#,###:/##[>[3}_2***||||*|*|***2_1~33]@@)&",
"&&&&&,,,,4##33%/>>[~$2***||.||*|*****2_=~~:3&'@)",
"&&&&,&,,,#::333[>>[=-2****|*||||****222~~%%:)&@)",
"&&&&&&,&,4#3--1%>!~]=_********{|**2**22=%~%%&))@",
"&@&&&,&&,,3-3=1=%!~]<$2*****22'2^{**2*2=%%%%:),'",
"&@&&&&&&&<:--==1111~<'_*****2}''+22*22_-%%[%::&)",
"&&@&&&&&,&]<--1111%~3}_2***{2}))'2{2*2$<![[[::<&",
"@&@&@&&&&&:3}===111%~3_2**2++<<:<%''+2]}%[!%/)4]"};
