/* XPM */
static char * logo_big_xpm[] = {
"128 128 16 1",
" 	c #020400",
".	c #060C0F",
"+	c #191C1C",
"@	c #262829",
"#	c #343737",
"$	c #454748",
"%	c #535555",
"&	c #626564",
"*	c #717473",
"=	c #7F8184",
"-	c #929594",
";	c #A4A6A5",
">	c #B4B6B5",
",	c #C6C8C6",
"'	c #D6D9D7",
")	c #FDFFFC",
"                                                                                                                                ",
"                                                                                                                                ",
"      .               .       .       .     .   .     .       .       ..      .       .       .       .     .....     .         ",
"    ....             ...........     ...   .......   ...     ....   ....     ...     ...     ...     ...   .......   ...        ",
"    ........   ..................................................   ........................................................ .  ",
"    ..........................................................................................................................  ",
"     ....                                                                                                               ....... ",
"     .........................................................................................................................  ",
"     ...$===============================================================================================================$.....  ",
"    .. .=)))))))))))))))))))))))))))))))))))))))))))))))))))))))))))))))))))))))))))))))))))))))))))))))))))))))))))))))=. ...  ",
"    .. .=)))))))))))))))))))))))))))))))))))))))))))))))))))))))))))))))))))))))))))))))))))))))))))))))))))))))))))))))=. ...  ",
"    .. .=)))))))))))))))))))))))))))))))))))))))))))))))))))))))))))))))))))))))))))))))))))))))))))))))))))))))))))))))=. ...  ",
"     . .=)))))))))))))))))))))))))))))))))))))))))))))))))))))))))))))))))))))))))))))))))))))))))))))))))))))))))))))))=. ...  ",
"     . .=)))))))))))))))))))))))))))))))))))))))))))))))))))))))))))))))))))))))))))))))))))))))))))))))))))))))))))))))=. ...  ",
"     . .=)))))))))))))))))))))))))))))))))))))))))))))))))))))))))))))',>;--==--;,')))))))))))))))))))))))))))))))))))))=. ...  ",
"    .. .=)))))))))))))))))))))))))))))))))))))))))))))))))))))))))))))>=%#@+ .+#%*;'))))))))))))))))))))))))))))))))))))=. ...  ",
"    .. .=))))))))))))))))))))))))))))))))))))))))))))))))))))))))))'>=&$@+    ..@#%*;'))))))))))))))))))))))))))))))))))=. ...  ",
"    .. .=)))))))))))))))))))))))))))))))))))))))))))))))))))))))))'>&+  .........  .%-')))))))))))))))))))))))))))))))))=. ...  ",
"    .. .=))))))))))))))))))))))))))))))))))))))))))))))))))))))))';%@    ........   +$-'))))))))))))))))))))))))))))))))=. ...  ",
"    .. .=)))))))))))))))))))))))))))))))))))))))))))))))))))))))'>%      ........     $-')))))))))))))))))))))))))))))))=. ...  ",
"    .. .=)))))))))))))))))))))))))))))))))))))))))))))))))))))))>&@.   .............. +$;)))))))))))))))))))))))))))))))=. ...  ",
"    .. .=))))))))))))))))))))))))))))))))))))))))))))))))))))))'=+.................... .*'))))))))))))))))))))))))))))))=. ...  ",
"    .. .=)))))))))))))))))))))))))))))))))))))))))))))))))))))'>%. ................... .$-')))))))))))))))))))))))))))))=. ...  ",
"    .. .=))))))))))))))))))))))))))))))))))))))))))))))))))))),=#.......................@&>)))))))))))))))))))))))))))))=. ...  ",
"    .. .=)))))))))))))))))))))))))))))))))))))))))))))))))))))>%@........................#-)))))))))))))))))))))))))))))=. ...  ",
"    .. .=)))))))))))))))))))))))))))))))))))))))))))))))))))))-#.........................+-)))))))))))))))))))))))))))))=. ...  ",
"    .. .=)))))))))))))))))))))))))))))))))))))))))))))))))))))-+........................  =)))))))))))))))))))))))))))))=. ...  ",
"    .. .=)))))))))))))))))))))))))))))))))))))))))))))))))))))=  .......................  *'))))))))))))))))))))))))))))=. ...  ",
"    .. .=)))))))))))))))))))))))))))))))))))))))))))))))))))))=  .......................  *'))))))))))))))))))))))))))))=. ...  ",
"    .. .=)))))))))))))))))))))))))))))))))))))))))))))))))))))=  .......................  *'))))))))))))))))))))))))))))=. ...  ",
"    .. .=)))))))))))))))))))))))))))))))))))))))))))))))))))))-+........................  *'))))))))))))))))))))))))))))=. ...  ",
"    .. .=)))))))))))))))))))))))))))))))))))))))))))))))))))))-@........................  =)))))))))))))))))))))))))))))=. ...  ",
"    .. .=)))))))))))))))))))))))))))))))))))))))))))))))))))));%@........................@-)))))))))))))))))))))))))))))=. ...  ",
"    .. .=)))))))))))))))))))))))))))))))))))))))))))))))))))))>*#.......................+%;)))))))))))))))))))))))))))))=. ...  ",
"    .. .=)))))))))))))))))))))))))))))))))))))))))))))))))))))>&@..................... .#=,)))))))))))))))))))))))))))))=. ...  ",
"    .. .=))))))))))))))))))))))))))))))))))))))))))))))))))))'-$+..................... .&>')))))))))))))))))))))))))))))=. ...  ",
"    .. .=))))))))))))))))))))))))))))))))))))))))))))))))))'>=%@.. ....................#-'))))))))))))))))))))))))))))))=. ...  ",
"    .. .=)))))))))))))))))))))))))))))))))))))))))))))))))';&+....................... #&>)))))))))))))))))))))))))))))))=. ...  ",
"    .. .=)))))))))))))))))))))))))))))))))))))))))))))))'>=%@. .#%%$+  ...........  .#*>')))))))))))))))))))))))))))))))=. ...  ",
"    .. .=)))))))))))))))))))))))))))))))))))))))))))))));&@  ..+&>;=$...............#&>)))))))))))))))))))))))))))))))))=. ...  ",
"    .. .=))))))))))))))))))))))))))''''))))))))))))))'>=%@   @%=>'',-&$@.       .+#&->')))))))))))))))))))))))))))))))))=. ...  ",
"    .. .=))))))))))))))))))))))))',>>;>,')))))))))))'>*@.   @%;'))))),-%@.  ....@$=>')))))))))))))))))))))))))))))))))))=. ...  ",
"    .. .=))))))))))))))))))))),;-*&&%%%&*=;>')))))',-&@.  @%=>')))))))'>-=**&**=-;,'))))))))))))))))))))))))))))))))))))=. ...  ",
"    .. .=)))))))))))))))))))),=$@   .....+#*>'))))>*#... +%;')))))))))))))''''')))))))))))))))))))))))))))))))))))))))))=. ...  ",
"    .. .=))))))))))))))))))';&#+    ..    +#%=>',-&#   +$*;'))))))))))))))))))))))))))))))))))))))))))))))))))))))))))))=. ...  ",
"    .. .=)))))))))))))))))'-$    ............@*;*#+   +$-'))))))))))))))))))))))))))))))))))))))))))))))))))))))))))))))=. ...  ",
"    .. .=))))))))))))))))'-$+   ..............#%#   +$*;')))))))))))))))))))))))))))))))))))))))))))))))))))))))))))))))=. ...  ",
"    .. .=)))))))))))))))'>%     .................   $-,)))))))))))))))))))))))))))))))))))))))))))))))))))))))))))))))))=. ...  ",
"    .. .=)))))))))))))))>&@  . ..................+#*;,))))))))))))))))))))))))))))))))))))))))))))))))))))))))))))))))))=. ...  ",
"    .. .=)))))))))))))))=+.......................+*'))))))))))))))))))))))))))))))))))))))))))))))))))))))))))))))))))))=. ...  ",
"    .. .=)))))))))))))),&. ......................+=)))))))))))))))))))))))))))))))))))))))))))))))))))))))))))))))))))))=. ...  ",
"    .. .=)))))))))))))';%.......................  =)))))))))))))))))))))))))))))))))))))))))))))))))))))))))))))))))))))=. ...  ",
"    .. .=))))))))))))),=#.......................  *'))))))))))))))))))))))))))))))))))))))))))))))))))))))))))))))))))))=. ...  ",
"    .. .=)))))))))))))>&@........................ %>')))))))))))))))))))))))))))))))))))))))))))))))))))))))))))))))))))=. ...  ",
"    .. .=)))))))))))));%@.......................  %;')))))))))))))))))))))))))))))))))))))))))))))))))))))))))))))))))))=. ...  ",
"    .. .=)))))))))))));$+.......................  $-')))))))))))))))))))))))))))))))))))))))))))))))))))))))))))))))))))=. ...  ",
"    .. .=)))))))))))));$+.......................  %;')))))))))))))))))))))))))))))))))))))))))))))))))))))))))))))))))))=. ...  ",
"    .. .=)))))))))))))>%@.......................  %;')))))))))))))))))))))))))))))))))))))))))))))))))))))))))))))))))))=. ...  ",
"    .. .=)))))))))))))>&@.......................  &>')))))))))))))))))))))))))))))))))))))))))))))))))))))))))))))))))))=. ...  ",
"    .. .=))))))))))))),=#.......................  &,))))))))))))))))))))))))))))))))))))))))))))))))))))))))))))))))))))=. ...  ",
"    .. .=)))))))))))))';%. ......................+=)))))))))))))))))))))))))))))))))))))))))))))))))))))))))))))))))))))=. ...  ",
"    .. .=)))))))))))))),&. ......................#-)))))))))))))))))))))))))))))))))))))))))))))))))))))))))))))))))))))=. ...  ",
"    .. .=)))))))))))))))-@......................+$;)))))))))))))))))))))))))))))))))))))))))))))))))))))))))))))))))))))=. .... ",
"    .. .=)))))))))))))))>%@.....................+$;)))))))))))))))))))))))))))))))))))))))))))))))))))))))))))))))))))))=. ...  ",
"    .. .=)))))))))))))))';%................... ..@&-')))))))))))))))))))))))))))))))))))))))))))))))))))))))))))))))))))=. ...  ",
"    .. .=)))))))))))))))))-#+   ..................+#-'))))))))))))))))))))))))))))))))))))))))))))))))))))))))))))))))))=. ..   ",
"    .. .=))))))))))))))))),-%@   ......... .@$%%@  +$=>)))))))))))))))))))))))))))))))))))))))))))))))))))))))))))))))))=. ..   ",
"    .. .=)))))))))))))))))));%@ ...........+%->;%....+*,')))))))))))))))))))))))))))))))))))))))))))))))))))))))))))))))=. ..   ",
"    .. .=)))))))))))))))))))'>=&$#@++++@#$&=>''';&#. .@&;'))))))))))))))))))))))))))))))))))))))))))))))))))))))))))))))=. ...  ",
"    .. .=)))))))))))))))))))))',-*%$##$&*-,'))))),*+....$-')))))))))))))))))))))))))))))))))))))))))))))))))))))))))))))=. ...  ",
"    .. .=)))))))))))))))))))))))'>>;;;;>,'')))))))>=$+  +$=>')))))))))))))))))))))))))))))))))))))))))))))))))))))))))))=. .... ",
"    .. .=))))))))))))))))))))))))))))))))))))))))))'-#+.. #&>)))))))))))))))))))))))))))))))))))))))))))))))))))))))))))=. ...  ",
"    .. .=)))))))))))))))))))))))))))))))))))))))))))'-&@.  #&;')))))))))))))))))))))))))))))))))))))))))))))))))))))))))=. ...  ",
"    .. .=)))))))))))))))))))))))))))))))))))))))))))))>&@...+$-'))))))))))))))))))))))))))))))))))))))))))))))))))))))))=. ...  ",
"    .. .=)))))))))))))))))))))))))))))))))))))))))))))'>=$+  +$=,)))))))))))))))))))))))))))))))))))))))))))))))))))))))=. ...  ",
"    .. .=)))))))))))))))))))))))))))))))))))))))))))))))'-$....@*,))))))))))))))))))))))))))))))))))))))))))))))))))))))=. ...  ",
"    .. .=))))))))))))))))))))))))))))))))))))))))))))))))'-&@. .#&;'))))))))))))))))))))))))))))))))))))))))))))))))))))=. ...  ",
"    .. .=)))))))))))))))))))))))))))))))))))))))))))))))))'>&+....%;')))))))))))))))))))))))))))))))))))))))))))))))))))=. ...  ",
"    .. .=))))))))))))))))))))))))))))))))))))))))))))))))))'>=$.  +%-,))))))))))))))))))))))))))))))))))))))))))))))))))=. ...  ",
"    .. .=))))))))))))))))))))))))))))))))))))))))))))))))))))'=#+...#*>)))))))))))))))))))))))))))))))))))))))))))))))))=. ...  ",
"    .. .=))))))))))))))))))))))))))))))))))))))))))))))))))))),-%@. .#*;')))))))))))))))))))))))))))))))))))))))))))))))=. ...  ",
"    .. .=)))))))))))))))))))))))))))))))))))))))))))))))))))))));%@  .+$;)))))))))))))))))))))))))))))))))))))))))))))))=. ...  ",
"    .. .=)))))))))))))))))))))))))))))))))))))))))))))))))))))))'>*$+ .+%-,)))))))))))))))))))))))))))))))))))))))))))))=. ...  ",
"    .. .=))))))))))))))))))))))))))))))))))))))))))))))))))))))))),=$....@='))))))))))))))))))))))))))))))))))))))))))))=. ...  ",
"    .. .=)))))))))))))))))))))))))))))))))))))))))))))))))))))))))),-%@  .#*;'))))))))))))))))))))))))))))))))))))))))))=. ...  ",
"    .. .=)))))))))))))))))))))))))))))))))))))))))))))))))))))))))))'>&+ ..+&>')))))))))))''''))))))))))))))))))))))))))=. ...  ",
"    .. .=))))))))))))))))))))))))))))))))))))))))))))))))))))))))))))'>*#.  @%-,)))))'>;-=****=-;>')))))))))))))))))))))=. ...  ",
"    .. .=))))))))))))))))))))))))))))))))))))))))))))))))))))))))))))))'=@....#=,)))';*#+.     +$*>'))))))))))))))))))))=. ...  ",
"    .. .=))))))))))))))))))))))))))))))))))))))))))))))))))))))))))))))),-%@. .$=;>;=%#+.      .+#%=>'))))))))))))))))))=. ...  ",
"    .. .=)))))))))))))))))))))))))))))))))))))))))))))))))))))))))))))))));%@...#%%$@..............+&>')))))))))))))))))=. ...  ",
"    .. .=)))))))))))))))))))))))))))))))))))))))))))))))))))))))))))))))))';*#. .@@+.............. .@&;)))))))))))))))))=. ...  ",
"    .. .=))))))))))))))))))))))))))))))))))))))))))))))))))))))))))))))))))),=#.......................&,))))))))))))))))=. ...  ",
"    .. .=)))))))))))))))))))))))))))))))))))))))))))))))))))))))))))))))))))),=#+................... .#=,)))))))))))))))=. ...  ",
"    .. .=)))))))))))))))))))))))))))))))))))))))))))))))))))))))))))))))))))))>%@......................@-)))))))))))))))=. ...  ",
"    .. .=)))))))))))))))))))))))))))))))))))))))))))))))))))))))))))))))))))));$+.......................*'))))))))))))))=. ...  ",
"    .. .=)))))))))))))))))))))))))))))))))))))))))))))))))))))))))))))))))))))=+........................%>')))))))))))))=. ...  ",
"    .. .=))))))))))))))))))))))))))))))))))))))))))))))))))))))))))))))))))))'*  .......................$-,)))))))))))))=. ...  ",
"    .. .=)))))))))))))))))))))))))))))))))))))))))))))))))))))))))))))))))))'>&  .......................#&>)))))))))))))=. ...  ",
"    .. .=)))))))))))))))))))))))))))))))))))))))))))))))))))))))))))))))))))';%  .......................@%>)))))))))))))=. ...  ",
"    .. .=)))))))))))))))))))))))))))))))))))))))))))))))))))))))))))))))))))';% ........................+$;)))))))))))))=. ...  ",
"    .. .=)))))))))))))))))))))))))))))))))))))))))))))))))))))))))))))))))))'-$.........................+$;)))))))))))))=. ...  ",
"    .. .=)))))))))))))))))))))))))))))))))))))))))))))))))))))))))))))))))))';%.........................@%;)))))))))))))=. ...  ",
"    .. .=)))))))))))))))))))))))))))))))))))))))))))))))))))))))))))))))))))'>%. .......................@&>)))))))))))))=. ...  ",
"    .. .=)))))))))))))))))))))))))))))))))))))))))))))))))))))))))))))))))))),&. .......................#*,)))))))))))))=. ...  ",
"    .. .=))))))))))))))))))))))))))))))))))))))))))))))))))))))))))))))))))))'*. ..................... .$-')))))))))))))=. ...  ",
"    .. .=)))))))))))))))))))))))))))))))))))))))))))))))))))))))))))))))))))))-+...................... .&,))))))))))))))=. ...  ",
"    .. .=)))))))))))))))))))))))))))))))))))))))))))))))))))))))))))))))))))))>%@......................+='))))))))))))))=. ...  ",
"    .. .=)))))))))))))))))))))))))))))))))))))))))))))))))))))))))))))))))))))'-$.....................+$;)))))))))))))))=. ...  ",
"    .. .=)))))))))))))))))))))))))))))))))))))))))))))))))))))))))))))))))))))),*@...   ............  $-')))))))))))))))=. ...  ",
"    .. .=)))))))))))))))))))))))))))))))))))))))))))))))))))))))))))))))))))))));%@..    ........... +='))))))))))))))))=. ...  ",
"    .. .=)))))))))))))))))))))))))))))))))))))))))))))))))))))))))))))))))))))))';&@.   ............$*,)))))))))))))))))=. ...  ",
"    .. .=)))))))))))))))))))))))))))))))))))))))))))))))))))))))))))))))))))))))))>&@    .........+#='))))))))))))))))))=. ...  ",
"    .. .=)))))))))))))))))))))))))))))))))))))))))))))))))))))))))))))))))))))))))'>-&$@+.   ..+#$*-,)))))))))))))))))))=. ...  ",
"    .. .=)))))))))))))))))))))))))))))))))))))))))))))))))))))))))))))))))))))))))))',-&#@+  +@$*;')))))))))))))))))))))=. ...  ",
"     . .=)))))))))))))))))))))))))))))))))))))))))))))))))))))))))))))))))))))))))))))'>;--==--;>'))))))))))))))))))))))=. ...  ",
"     . .=)))))))))))))))))))))))))))))))))))))))))))))))))))))))))))))))))))))))))))))))))))))))))))))))))))))))))))))))=. ...  ",
"     . .=)))))))))))))))))))))))))))))))))))))))))))))))))))))))))))))))))))))))))))))))))))))))))))))))))))))))))))))))=. ...  ",
"    .. .=)))))))))))))))))))))))))))))))))))))))))))))))))))))))))))))))))))))))))))))))))))))))))))))))))))))))))))))))=. ...  ",
"    .. .=)))))))))))))))))))))))))))))))))))))))))))))))))))))))))))))))))))))))))))))))))))))))))))))))))))))))))))))))=. ...  ",
"    .. .=)))))))))))))))))))))))))))))))))))))))))))))))))))))))))))))))))))))))))))))))))))))))))))))))))))))))))))))))=. ...  ",
"     ...$===============================================================================================================$.....  ",
"     .........................................................................................................................  ",
"     ....                                                                                                               ....... ",
"    ..........................................................................................................................  ",
"    ........   ........................................................................... ......  ............... ......... .  ",
"    ....             ...........     ...     ...     ...     ...     ...     ...     ...     ....   ....     ...     ...        ",
"      .               .       .       .       .       .       .       .       .       ..      .       .       .       .         ",
"                                                                                                                                "};
