/* XPM */
static char * logo_xpm[] = {
"32 32 8 1",
" 	c #060B0C",
".	c #2F3234",
"+	c #59595A",
"@	c #797B79",
"#	c #969996",
"$	c #B4B6B3",
"%	c #D2D4D2",
"&	c #FCFFFB",
"                                ",
"                                ",
"  &&&&&&&&&&&&&&&&&&&&&&&&&&&&  ",
"  &&&&&&&&&&&&&&&%##%&&&&&&&&&  ",
"  &&&&&&&&&&&&&&#    #&&&&&&&&  ",
"  &&&&&&&&&&&&&%      %&&&&&&&  ",
"  &&&&&&&&&&&&&#      @&&&&&&&  ",
"  &&&&&&&&&&&&&#      @&&&&&&&  ",
"  &&&&&&&&&&&&&$      $&&&&&&&  ",
"  &&&&&&&&&&&&@ +    @&&&&&&&&  ",
"  &&&&&$@+#&%..%&%@@$&&&&&&&&&  ",
"  &&&&#    . @&&&&&&&&&&&&&&&&  ",
"  &&&%      @&&&&&&&&&&&&&&&&&  ",
"  &&&$      +&&&&&&&&&&&&&&&&&  ",
"  &&&$      +&&&&&&&&&&&&&&&&&  ",
"  &&&&.     #&&&&&&&&&&&&&&&&&  ",
"  &&&&$    + $&&&&&&&&&&&&&&&&  ",
"  &&&&&&$$%&$ @&&&&&&&&&&&&&&&  ",
"  &&&&&&&&&&&%.+&&&&&&&&&&&&&&  ",
"  &&&&&&&&&&&&&+.%&&&&&&&&&&&&  ",
"  &&&&&&&&&&&&&&@ $&&&&&&&&&&&  ",
"  &&&&&&&&&&&&&&&$ #&$@@%&&&&&  ",
"  &&&&&&&&&&&&&&&&%..    #&&&&  ",
"  &&&&&&&&&&&&&&&&&#      &&&&  ",
"  &&&&&&&&&&&&&&&&&+      $&&&  ",
"  &&&&&&&&&&&&&&&&&+      $&&&  ",
"  &&&&&&&&&&&&&&&&&$      &&&&  ",
"  &&&&&&&&&&&&&&&&&&@    $&&&&  ",
"  &&&&&&&&&&&&&&&&&&&%##%&&&&&  ",
"  &&&&&&&&&&&&&&&&&&&&&&&&&&&&  ",
"                                ",
"                                "};
